<svg width="72" height="13" viewBox="0 0 72 13" fill="none" xmlns="http://www.w3.org/2000/svg">
<line x1="0.000274658" y1="2" x2="15.4415" y2="2" stroke="black" stroke-width="2"/>
<line x1="0.000274658" y1="12" x2="15.4415" y2="12" stroke="black" stroke-width="2"/>
<line x1="0.000274658" y1="7" x2="15.4415" y2="7" stroke="black" stroke-width="2"/>
<path d="M24.1403 10.13C22.1803 10.13 21.2003 8.9 21.2003 6.44C21.2003 5.27333 21.4369 4.38667 21.9103 3.78C22.3903 3.17333 23.1536 2.87 24.2003 2.87C25.0403 2.87 25.7869 3.10333 26.4403 3.57C26.4403 3.94333 26.3936 4.41667 26.3003 4.99C26.2069 5.01 26.0136 5.02 25.7203 5.02L25.4203 3.78C24.9469 3.69333 24.5669 3.65 24.2803 3.65C23.7536 3.65 23.2903 3.72333 22.8903 3.87L22.7003 3.94C22.6603 4.00667 22.6103 4.10667 22.5503 4.24C22.4903 4.36667 22.4103 4.63667 22.3103 5.05C22.2169 5.46333 22.1703 5.88667 22.1703 6.32C22.1703 7.26 22.3236 8.00667 22.6303 8.56C22.9436 9.11333 23.4403 9.39 24.1203 9.39C24.6069 9.39 24.9736 9.34 25.2203 9.24C25.2869 9.20667 25.3836 9.15667 25.5103 9.09L25.7203 7.89L26.3003 7.92C26.4003 8.60667 26.4503 9.16333 26.4503 9.59C26.3103 9.69667 26.0069 9.81333 25.5403 9.94C25.0803 10.0667 24.6136 10.13 24.1403 10.13ZM31.2885 6.73L31.2385 9.31C31.5251 9.33 31.8118 9.37667 32.0985 9.45L32.0785 9.8C31.9718 9.85333 31.7785 9.91333 31.4985 9.98C31.2251 10.04 30.9551 10.07 30.6885 10.07C30.5685 9.83 30.5018 9.6 30.4885 9.38C29.7285 9.88 29.1951 10.13 28.8885 10.13C28.4151 10.13 28.0351 10.0033 27.7485 9.75C27.4618 9.49667 27.3185 9.14333 27.3185 8.69C27.3185 7.64333 27.9585 7.10333 29.2385 7.07C29.9851 7.05 30.3618 7.04 30.3685 7.04L30.3585 6.7C30.3451 6.24 30.2585 5.91 30.0985 5.71C29.9385 5.50333 29.6518 5.4 29.2385 5.4C29.0651 5.4 28.8785 5.44 28.6785 5.52L28.4385 6.52C28.4051 6.52667 28.3485 6.53 28.2685 6.53L27.8585 6.5C27.7518 6.21333 27.6951 5.81667 27.6885 5.31C27.8151 5.24333 28.1051 5.14333 28.5585 5.01C29.0118 4.87 29.3018 4.8 29.4285 4.8C30.1085 4.8 30.5885 4.95 30.8685 5.25C31.1485 5.55 31.2885 6.04333 31.2885 6.73ZM29.1085 9.45C29.3018 9.45 29.7485 9.23333 30.4485 8.8L30.3985 7.55C29.9451 7.59 29.5651 7.62667 29.2585 7.66C28.9518 7.69333 28.7051 7.78333 28.5185 7.93C28.3318 8.07 28.2385 8.29333 28.2385 8.6C28.2385 9.16667 28.5285 9.45 29.1085 9.45ZM33.3991 9.38L33.3191 5.61H32.5491L32.5191 5.26C32.5858 5.21333 32.7791 5.12667 33.0991 5L33.9191 3.72C34.0524 3.73333 34.1558 3.76667 34.2291 3.82L34.2191 4.92C34.7191 4.92 35.1291 4.95333 35.4491 5.02C35.4491 5.2 35.3924 5.39667 35.2791 5.61H34.1991C34.1858 6.41 34.1724 7.62333 34.1591 9.25C34.5324 9.27 34.9058 9.33667 35.2791 9.45L35.2691 9.8C35.1758 9.86 34.9358 9.93 34.5491 10.01C34.1691 10.09 33.8558 10.13 33.6091 10.13C33.5758 10.0767 33.5324 9.96333 33.4791 9.79C33.4258 9.61 33.3991 9.47333 33.3991 9.38ZM38.6757 9.44C38.969 9.44 39.429 9.3 40.0557 9.02C40.1823 9.19333 40.249 9.34667 40.2557 9.48C39.9157 9.68 39.5823 9.83667 39.2557 9.95C38.929 10.0633 38.6957 10.12 38.5557 10.12C37.7823 10.12 37.1923 9.89 36.7857 9.43C36.379 8.96333 36.1757 8.31333 36.1757 7.48C36.1757 6.64667 36.3723 5.99333 36.7657 5.52C37.1657 5.04 37.7623 4.8 38.5557 4.8C39.169 4.8 39.6357 5.02 39.9557 5.46C40.2823 5.9 40.4457 6.49 40.4457 7.23C40.3923 7.32333 40.349 7.38667 40.3157 7.42L37.0957 7.37C37.1023 8.04333 37.219 8.55667 37.4457 8.91C37.679 9.26333 38.089 9.44 38.6757 9.44ZM39.5357 6.8C39.5357 6.36 39.4557 6.02 39.2957 5.78C39.1357 5.53333 38.869 5.41 38.4957 5.41C38.1223 5.41 37.789 5.48 37.4957 5.62C37.2957 6.02 37.169 6.43 37.1157 6.85C37.6423 6.84333 38.449 6.82667 39.5357 6.8ZM43.8929 9.39L44.7829 9.37C45.7029 9.37 46.1629 9.75 46.1629 10.51C46.1629 10.8633 46.0095 11.19 45.7029 11.49C45.4029 11.7967 45.0429 12.0267 44.6229 12.18C44.2029 12.3333 43.8095 12.41 43.4429 12.41C43.0829 12.41 42.7462 12.3567 42.4329 12.25C42.1195 12.15 41.8529 11.9833 41.6329 11.75C41.4129 11.5167 41.3029 11.2467 41.3029 10.94C41.3029 10.8667 41.4195 10.6733 41.6529 10.36C41.8929 10.0533 42.0495 9.87333 42.1229 9.82C42.0629 9.78 41.9462 9.66667 41.7729 9.48C41.5995 9.28667 41.5029 9.15333 41.4829 9.08C41.6495 8.77333 41.9129 8.47333 42.2729 8.18C41.7395 7.86 41.4729 7.33333 41.4729 6.6C41.4729 6.01333 41.6595 5.56667 42.0329 5.26C42.4062 4.95333 42.8729 4.8 43.4329 4.8C43.9929 4.8 44.4262 4.89 44.7329 5.07C45.2662 4.96333 45.7895 4.91 46.3029 4.91C46.4295 4.91 46.4929 4.98667 46.4929 5.14C46.4929 5.40667 46.4429 5.59 46.3429 5.69L45.1929 5.5C45.4329 5.80667 45.5529 6.17333 45.5529 6.6C45.5529 7.26667 45.3562 7.74667 44.9629 8.04C44.5695 8.32667 44.0862 8.47 43.5129 8.47C43.3329 8.47 43.1195 8.44667 42.8729 8.4C42.7729 8.60667 42.6462 8.83 42.4929 9.07C42.6129 9.28333 43.0795 9.39 43.8929 9.39ZM45.1629 11.23C45.2295 11.0433 45.2629 10.85 45.2629 10.65C45.2629 10.4567 45.1862 10.3 45.0329 10.18C44.8795 10.06 44.6829 10 44.4429 10C43.4895 10 42.9062 9.99 42.6929 9.97C42.5129 10.2567 42.3862 10.4967 42.3129 10.69C42.2462 10.89 42.2129 11.0033 42.2129 11.03C42.2129 11.29 42.3362 11.4833 42.5829 11.61C42.8295 11.7367 43.1129 11.8 43.4329 11.8C43.7595 11.8 44.0862 11.7467 44.4129 11.64C44.7462 11.5333 44.9962 11.3967 45.1629 11.23ZM44.6529 6.64C44.6529 5.81333 44.2729 5.4 43.5129 5.4C42.7529 5.4 42.3729 5.8 42.3729 6.6C42.3729 7.00667 42.4729 7.32 42.6729 7.54C42.8729 7.76 43.1629 7.87 43.5429 7.87C44.2829 7.87 44.6529 7.46 44.6529 6.64ZM49.3441 9.52C49.9041 9.52 50.2808 9.34667 50.4741 9C50.6741 8.64667 50.7741 8.14667 50.7741 7.5C50.7741 6.47333 50.5474 5.83 50.0941 5.57C49.9074 5.46333 49.6441 5.41 49.3041 5.41C48.9708 5.41 48.6541 5.48 48.3541 5.62C48.0874 6.13333 47.9541 6.73 47.9541 7.41C47.9541 8.06333 48.0408 8.56667 48.2141 8.92C48.4141 9.32 48.7908 9.52 49.3441 9.52ZM47.0341 7.5C47.0341 6.65333 47.2274 5.99333 47.6141 5.52C48.0008 5.04 48.5974 4.8 49.4041 4.8C50.2108 4.8 50.7941 5.02 51.1541 5.46C51.5141 5.89333 51.6941 6.53667 51.6941 7.39C51.6941 8.24333 51.5008 8.91333 51.1141 9.4C50.7341 9.88667 50.1541 10.13 49.3741 10.13C48.5941 10.13 48.0074 9.90333 47.6141 9.45C47.2274 8.99667 47.0341 8.34667 47.0341 7.5ZM55.485 5.64C55.4516 5.60667 55.3783 5.59 55.265 5.59C55.1516 5.59 54.9816 5.63 54.755 5.71C54.535 5.79 54.335 5.88333 54.155 5.99C54.115 7.47 54.0883 8.58 54.075 9.32L54.915 9.4C54.915 9.58667 54.8583 9.78667 54.745 10H52.445L52.415 9.65C52.7216 9.54333 53.0216 9.46333 53.315 9.41C53.275 7.71667 53.2416 6.46333 53.215 5.65C52.8483 5.63 52.555 5.59 52.335 5.53L52.375 5.01C52.7283 4.91 53.2516 4.86 53.945 4.86C54.0516 5.02667 54.1183 5.24 54.145 5.5C54.9116 5.03333 55.3683 4.8 55.515 4.8C55.6616 4.8 55.8316 4.83 56.025 4.89C56.2183 4.94333 56.3616 5.00333 56.455 5.07C56.455 5.73667 56.3916 6.28 56.265 6.7C56.1716 6.72667 56.0616 6.74 55.935 6.74C55.815 6.74 55.7316 6.73667 55.685 6.73L55.485 5.64ZM58.7071 3.97C58.5338 4.01 58.3638 4.03 58.1971 4.03C58.0371 4.03 57.8771 4.02 57.7171 4C57.6771 3.81333 57.6571 3.62667 57.6571 3.44C57.6571 3.24667 57.6638 3.10333 57.6771 3.01C57.8238 2.97667 57.9771 2.96 58.1371 2.96C58.3038 2.96 58.4805 2.96667 58.6671 2.98C58.7071 3.15333 58.7271 3.32333 58.7271 3.49C58.7271 3.65 58.7205 3.81 58.7071 3.97ZM56.8871 5.02C57.4538 4.92 57.8938 4.87 58.2071 4.87C58.5205 4.87 58.7205 4.87667 58.8071 4.89C58.8071 5.05 58.7871 5.22667 58.7471 5.42C58.7071 5.61333 58.6838 5.70667 58.6771 5.7L58.5871 9.32L59.4271 9.4C59.4271 9.58667 59.3705 9.78667 59.2571 10H56.9571L56.9271 9.65C57.2338 9.54333 57.5338 9.46333 57.8271 9.41C57.7871 7.74333 57.7538 6.49333 57.7271 5.66C57.3405 5.66 57.0471 5.62 56.8471 5.54L56.8871 5.02ZM62.5233 9.44C62.8167 9.44 63.2767 9.3 63.9033 9.02C64.03 9.19333 64.0967 9.34667 64.1033 9.48C63.7633 9.68 63.43 9.83667 63.1033 9.95C62.7767 10.0633 62.5433 10.12 62.4033 10.12C61.63 10.12 61.04 9.89 60.6333 9.43C60.2267 8.96333 60.0233 8.31333 60.0233 7.48C60.0233 6.64667 60.22 5.99333 60.6133 5.52C61.0133 5.04 61.61 4.8 62.4033 4.8C63.0167 4.8 63.4833 5.02 63.8033 5.46C64.13 5.9 64.2933 6.49 64.2933 7.23C64.24 7.32333 64.1967 7.38667 64.1633 7.42L60.9433 7.37C60.95 8.04333 61.0667 8.55667 61.2933 8.91C61.5267 9.26333 61.9367 9.44 62.5233 9.44ZM63.3833 6.8C63.3833 6.36 63.3033 6.02 63.1433 5.78C62.9833 5.53333 62.7167 5.41 62.3433 5.41C61.97 5.41 61.6367 5.48 61.3433 5.62C61.1433 6.02 61.0167 6.43 60.9633 6.85C61.49 6.84333 62.2967 6.82667 63.3833 6.8ZM65.9305 9.36C66.1638 9.46 66.4472 9.51 66.7805 9.51C67.1205 9.51 67.3872 9.44667 67.5805 9.32C67.7738 9.19333 67.8705 9.02 67.8705 8.8C67.8705 8.58 67.7805 8.39667 67.6005 8.25C67.4205 8.10333 67.2005 7.97333 66.9405 7.86C66.6805 7.74667 66.4205 7.62667 66.1605 7.5C65.9005 7.37333 65.6805 7.20667 65.5005 7C65.3205 6.79333 65.2305 6.55333 65.2305 6.28C65.2305 5.82 65.3838 5.46 65.6905 5.2C65.9972 4.93333 66.4205 4.8 66.9605 4.8C67.5072 4.8 68.0205 4.92333 68.5005 5.17C68.5072 5.23667 68.5105 5.41667 68.5105 5.71C68.5105 5.99667 68.4805 6.24333 68.4205 6.45C68.2605 6.50333 68.0705 6.53 67.8505 6.53L67.5205 5.51C67.3738 5.43667 67.1738 5.4 66.9205 5.4C66.6738 5.4 66.4772 5.46667 66.3305 5.6C66.1838 5.72667 66.1105 5.89 66.1105 6.09C66.1105 6.28333 66.2005 6.45333 66.3805 6.6C66.5672 6.74667 66.7905 6.88 67.0505 7C67.3105 7.11333 67.5705 7.23667 67.8305 7.37C68.0905 7.49667 68.3105 7.66667 68.4905 7.88C68.6772 8.08667 68.7705 8.32667 68.7705 8.6C68.7705 9.08 68.5838 9.45667 68.2105 9.73C67.8438 9.99667 67.3905 10.13 66.8505 10.13C66.5572 10.13 66.2438 10.0833 65.9105 9.99C65.5772 9.89 65.2972 9.76333 65.0705 9.61C65.0705 9.16333 65.1105 8.76667 65.1905 8.42C65.3438 8.39333 65.5505 8.38 65.8105 8.38L65.9305 9.36Z" fill="black"/>
</svg>
