<svg width="25" height="19" viewBox="0 0 25 19" fill="none" xmlns="http://www.w3.org/2000/svg">
<path d="M11.4271 17.5C11.4271 17.8978 11.2466 18.2794 10.9252 18.5607C10.6039 18.842 10.1681 19 9.71367 19C9.25924 19 8.82342 18.842 8.50209 18.5607C8.18077 18.2794 8.00024 17.8978 8.00024 17.5C8.00024 17.1022 8.18077 16.7206 8.50209 16.4393C8.82342 16.158 9.25924 16 9.71367 16C10.1681 16 10.6039 16.158 10.9252 16.4393C11.2466 16.7206 11.4271 17.1022 11.4271 17.5ZM20.9469 17.5C20.9469 17.8978 20.7664 18.2794 20.445 18.5607C20.1237 18.842 19.6879 19 19.2335 19C18.779 19 18.3432 18.842 18.0219 18.5607C17.7006 18.2794 17.52 17.8978 17.52 17.5C17.52 17.1022 17.7006 16.7206 18.0219 16.4393C18.3432 16.158 18.779 16 19.2335 16C19.6879 16 20.1237 16.158 20.445 16.4393C20.7664 16.7206 20.9469 17.1022 20.9469 17.5Z" fill="black"/>
<path fill-rule="evenodd" clip-rule="evenodd" d="M5.44436 3L4.73843 0H0.000244141V2H2.87651L5.35527 12.535L5.91727 15H22.2588L25.0002 3H5.44551H5.44436ZM7.79061 13L5.96296 5H22.2142L20.3866 13H7.79061Z" fill="black"/>
</svg>
