<svg width="33" height="11" viewBox="0 0 33 11" fill="none" xmlns="http://www.w3.org/2000/svg">
<path d="M2.86024 7.33C3.85358 7.33 4.35024 6.92667 4.35024 6.12C4.35024 5.72667 4.10691 5.39333 3.62024 5.12C3.40024 4.99333 3.15691 4.87333 2.89024 4.76C2.63024 4.64667 2.36691 4.52333 2.10024 4.39C1.83358 4.25667 1.59024 4.11333 1.37024 3.96C1.15691 3.80667 0.980244 3.61333 0.840244 3.38C0.706911 3.14667 0.640244 2.88333 0.640244 2.59C0.640244 2.11 0.833578 1.70333 1.22024 1.37C1.61358 1.03 2.15024 0.86 2.83024 0.86C3.51024 0.86 4.22691 1.06667 4.98024 1.48C4.98024 1.86 4.93358 2.33667 4.84024 2.91C4.69358 2.93 4.50024 2.94 4.26024 2.94L3.96024 1.78C3.88024 1.74 3.72024 1.7 3.48024 1.66C3.24691 1.62 3.04024 1.6 2.86024 1.6C2.47358 1.6 2.17358 1.68333 1.96024 1.85C1.74691 2.01 1.64024 2.23667 1.64024 2.53C1.64024 2.81667 1.76358 3.07667 2.01024 3.31C2.26358 3.53667 2.56691 3.73333 2.92024 3.9C3.28024 4.06 3.63691 4.22667 3.99024 4.4C4.35024 4.57333 4.65358 4.8 4.90024 5.08C5.15358 5.35333 5.28024 5.67333 5.28024 6.04C5.28024 6.70667 5.05691 7.22333 4.61024 7.59C4.16358 7.95 3.58024 8.13 2.86024 8.13C2.46691 8.13 2.04024 8.07 1.58024 7.95C1.12691 7.82333 0.750244 7.66333 0.450244 7.47C0.463577 7.02333 0.513577 6.50667 0.600244 5.92C0.746911 5.9 0.940244 5.89 1.18024 5.89L1.39024 7.09C1.53691 7.15 1.75691 7.20667 2.05024 7.26C2.35024 7.30667 2.62024 7.33 2.86024 7.33ZM7.89267 1.97C7.71933 2.01 7.54933 2.03 7.38267 2.03C7.22267 2.03 7.06267 2.02 6.90267 2C6.86267 1.81333 6.84267 1.62667 6.84267 1.44C6.84267 1.24667 6.84933 1.10333 6.86267 1.01C7.00933 0.976666 7.16267 0.959999 7.32267 0.959999C7.48933 0.959999 7.666 0.966666 7.85267 0.98C7.89267 1.15333 7.91267 1.32333 7.91267 1.49C7.91267 1.65 7.906 1.81 7.89267 1.97ZM6.07267 3.02C6.63933 2.92 7.07933 2.87 7.39267 2.87C7.706 2.87 7.906 2.87667 7.99267 2.89C7.99267 3.05 7.97267 3.22667 7.93267 3.42C7.89267 3.61333 7.86933 3.70667 7.86267 3.7L7.77267 7.32L8.61267 7.4C8.61267 7.58667 8.556 7.78667 8.44267 8H6.14267L6.11267 7.65C6.41933 7.54333 6.71933 7.46333 7.01267 7.41C6.97267 5.74333 6.93933 4.49333 6.91267 3.66C6.526 3.66 6.23267 3.62 6.03267 3.54L6.07267 3.02ZM11.8088 7.39L12.6988 7.37C13.6188 7.37 14.0788 7.75 14.0788 8.51C14.0788 8.86333 13.9255 9.19 13.6188 9.49C13.3188 9.79667 12.9588 10.0267 12.5388 10.18C12.1188 10.3333 11.7255 10.41 11.3588 10.41C10.9988 10.41 10.6622 10.3567 10.3488 10.25C10.0355 10.15 9.76884 9.98333 9.54884 9.75C9.32884 9.51667 9.21884 9.24667 9.21884 8.94C9.21884 8.86667 9.3355 8.67333 9.56884 8.36C9.80884 8.05333 9.9655 7.87333 10.0388 7.82C9.97884 7.78 9.86217 7.66667 9.68884 7.48C9.5155 7.28667 9.41884 7.15333 9.39884 7.08C9.5655 6.77333 9.82884 6.47333 10.1888 6.18C9.6555 5.86 9.38884 5.33333 9.38884 4.6C9.38884 4.01333 9.5755 3.56667 9.94884 3.26C10.3222 2.95333 10.7888 2.8 11.3488 2.8C11.9088 2.8 12.3422 2.89 12.6488 3.07C13.1822 2.96333 13.7055 2.91 14.2188 2.91C14.3455 2.91 14.4088 2.98667 14.4088 3.14C14.4088 3.40667 14.3588 3.59 14.2588 3.69L13.1088 3.5C13.3488 3.80667 13.4688 4.17333 13.4688 4.6C13.4688 5.26667 13.2722 5.74667 12.8788 6.04C12.4855 6.32667 12.0022 6.47 11.4288 6.47C11.2488 6.47 11.0355 6.44667 10.7888 6.4C10.6888 6.60667 10.5622 6.83 10.4088 7.07C10.5288 7.28333 10.9955 7.39 11.8088 7.39ZM13.0788 9.23C13.1455 9.04333 13.1788 8.85 13.1788 8.65C13.1788 8.45667 13.1022 8.3 12.9488 8.18C12.7955 8.06 12.5988 8 12.3588 8C11.4055 8 10.8222 7.99 10.6088 7.97C10.4288 8.25667 10.3022 8.49667 10.2288 8.69C10.1622 8.89 10.1288 9.00333 10.1288 9.03C10.1288 9.29 10.2522 9.48333 10.4988 9.61C10.7455 9.73667 11.0288 9.8 11.3488 9.8C11.6755 9.8 12.0022 9.74667 12.3288 9.64C12.6622 9.53333 12.9122 9.39667 13.0788 9.23ZM12.5688 4.64C12.5688 3.81333 12.1888 3.4 11.4288 3.4C10.6688 3.4 10.2888 3.8 10.2888 4.6C10.2888 5.00667 10.3888 5.32 10.5888 5.54C10.7888 5.76 11.0788 5.87 11.4588 5.87C12.1988 5.87 12.5688 5.46 12.5688 4.64ZM18.0701 2.8C18.7101 2.8 19.1734 2.96 19.4601 3.28C19.7468 3.59333 19.8901 4.07333 19.8901 4.72C19.8901 4.90667 19.8634 5.77333 19.8101 7.32L20.6501 7.4C20.6501 7.58667 20.5934 7.78667 20.4801 8H18.1801L18.1501 7.65C18.4568 7.54333 18.7568 7.46333 19.0501 7.41C19.0101 5.66333 18.9734 4.69333 18.9401 4.5C18.9134 4.3 18.8668 4.12667 18.8001 3.98C18.7334 3.83333 18.6334 3.73 18.5001 3.67C18.3668 3.61 18.1901 3.58 17.9701 3.58C17.5301 3.58 17.1034 3.68667 16.6901 3.9C16.6501 5.42 16.6234 6.56 16.6101 7.32L17.4501 7.4C17.4501 7.58667 17.3934 7.78667 17.2801 8H14.9801L14.9501 7.65C15.2568 7.54333 15.5568 7.46333 15.8501 7.41C15.8101 5.71667 15.7768 4.46333 15.7501 3.65C15.3834 3.63 15.0901 3.59 14.8701 3.53L14.9101 3.01C15.2701 2.91 15.7934 2.86 16.4801 2.86C16.5601 2.98 16.6201 3.15333 16.6601 3.38C16.9468 3.22667 17.2334 3.09333 17.5201 2.98C17.8134 2.86 17.9968 2.8 18.0701 2.8ZM25.5099 1.97C25.3365 2.01 25.1665 2.03 24.9999 2.03C24.8399 2.03 24.6799 2.02 24.5199 2C24.4799 1.81333 24.4599 1.62667 24.4599 1.44C24.4599 1.24667 24.4665 1.10333 24.4799 1.01C24.6265 0.976666 24.7799 0.959999 24.9399 0.959999C25.1065 0.959999 25.2832 0.966666 25.4699 0.98C25.5099 1.15333 25.5299 1.32333 25.5299 1.49C25.5299 1.65 25.5232 1.81 25.5099 1.97ZM23.6899 3.02C24.2565 2.92 24.6965 2.87 25.0099 2.87C25.3232 2.87 25.5232 2.87667 25.6099 2.89C25.6099 3.05 25.5899 3.22667 25.5499 3.42C25.5099 3.61333 25.4865 3.70667 25.4799 3.7L25.3899 7.32L26.2299 7.4C26.2299 7.58667 26.1732 7.78667 26.0599 8H23.7599L23.7299 7.65C24.0365 7.54333 24.3365 7.46333 24.6299 7.41C24.5899 5.74333 24.5565 4.49333 24.5299 3.66C24.1432 3.66 23.8499 3.62 23.6499 3.54L23.6899 3.02ZM29.906 2.8C30.546 2.8 31.0094 2.96 31.296 3.28C31.5827 3.59333 31.726 4.07333 31.726 4.72C31.726 4.90667 31.6994 5.77333 31.646 7.32L32.486 7.4C32.486 7.58667 32.4294 7.78667 32.316 8H30.016L29.986 7.65C30.2927 7.54333 30.5927 7.46333 30.886 7.41C30.846 5.66333 30.8094 4.69333 30.776 4.5C30.7494 4.3 30.7027 4.12667 30.636 3.98C30.5694 3.83333 30.4694 3.73 30.336 3.67C30.2027 3.61 30.026 3.58 29.806 3.58C29.366 3.58 28.9394 3.68667 28.526 3.9C28.486 5.42 28.4594 6.56 28.446 7.32L29.286 7.4C29.286 7.58667 29.2294 7.78667 29.116 8H26.816L26.786 7.65C27.0927 7.54333 27.3927 7.46333 27.686 7.41C27.646 5.71667 27.6127 4.46333 27.586 3.65C27.2194 3.63 26.926 3.59 26.706 3.53L26.746 3.01C27.106 2.91 27.6294 2.86 28.316 2.86C28.396 2.98 28.456 3.15333 28.496 3.38C28.7827 3.22667 29.0694 3.09333 29.356 2.98C29.6494 2.86 29.8327 2.8 29.906 2.8Z" fill="black"/>
</svg>
